<svg width="164" height="37" viewBox="0 0 164 37" fill="none" xmlns="http://www.w3.org/2000/svg">
<g clip-path="url(#clip0)">
<path fill-rule="evenodd" clip-rule="evenodd" d="M38.2595 2.45322C37.3194 1.98107 36.1561 1.84192 34.8561 2.0784C34.0546 2.22479 33.2 2.51435 32.3138 2.95594C31.463 3.38144 30.6484 3.91472 29.8766 4.53327L33.0075 6.10657C33.7793 5.48803 34.5939 4.95474 35.4438 4.53005C36.33 4.08766 37.1836 3.79809 37.9861 3.6517C39.2861 3.41522 40.4494 3.55437 41.3895 4.02653L38.2595 2.45322Z" fill="#F0A72E"/>
<mask id="mask0" mask-type="alpha" maskUnits="userSpaceOnUse" x="0" y="0" width="31" height="34">
<path fill-rule="evenodd" clip-rule="evenodd" d="M0 0H30.3026V33.6256H0V0Z" fill="white"/>
</mask>
<g mask="url(#mask0)">
<path fill-rule="evenodd" clip-rule="evenodd" d="M27.1726 0.56365C26.0865 0.017498 24.7409 -0.142567 23.2382 0.130911C22.3102 0.299824 21.3217 0.634433 20.2961 1.1468C18.5898 1.99941 16.9876 3.23811 15.5983 4.70282C13.0421 7.39819 11.2065 10.8585 10.762 14.0799C9.99487 14.2295 9.17285 14.5135 8.32945 14.9349C6.85838 15.6693 5.47751 16.7359 4.28075 17.9971C1.71614 20.6973 -0.00971918 24.2879 -0.000420372 27.4136C0.00794856 29.6931 0.9369 31.2978 2.4368 32.0515L5.56678 33.6256C4.06595 32.8711 3.137 31.2664 3.12956 28.9869C3.11933 25.8612 4.84612 22.2706 7.4098 19.5704C8.60749 18.3092 9.98743 17.2426 11.4594 16.5082C12.3019 16.0868 13.1248 15.8028 13.8911 15.6532C14.3356 12.4318 16.1721 8.9715 18.7283 6.27613C20.1176 4.81141 21.7188 3.57272 23.4261 2.72011C24.4508 2.20774 25.4393 1.87313 26.3673 1.70422C27.8709 1.42993 29.2155 1.5908 30.3025 2.13695L27.1726 0.56365Z" fill="#F0A72E"/>
</g>
<path fill-rule="evenodd" clip-rule="evenodd" d="M23.4258 2.72027C28.2668 0.302399 32.2895 1.83549 33.0073 6.10657C33.7791 5.48803 34.5937 4.95475 35.4436 4.53005C40.0577 2.22559 43.8125 4.0764 43.8274 8.66199C43.8423 13.2484 40.1116 18.837 35.4975 21.1414L11.5131 33.1198C6.89254 35.4275 3.14419 33.5734 3.12932 28.9871C3.11444 24.4007 6.83768 18.8161 11.4583 16.5084C12.3026 16.0869 13.1246 15.803 13.8908 15.6534C14.5771 10.6809 18.5774 5.14136 23.4258 2.72027Z" fill="#FFCA00"/>
<path fill-rule="evenodd" clip-rule="evenodd" d="M62.7052 4.70524C61.7651 4.23308 60.6018 4.09393 59.3019 4.33041C58.4994 4.4768 57.6457 4.76637 56.7586 5.20795C55.9087 5.63265 55.0942 6.16674 54.3224 6.78528L57.4523 8.35858C58.2241 7.74004 59.0387 7.20595 59.8896 6.78206C60.7748 6.33887 61.6294 6.05011 62.4309 5.90372C63.7318 5.66724 64.8942 5.80639 65.8343 6.27854L62.7052 4.70524Z" fill="#D43E3E"/>
<path fill-rule="evenodd" clip-rule="evenodd" d="M51.6138 2.8106C50.5277 2.26444 49.1821 2.10358 47.6795 2.37705C46.7514 2.54597 45.7648 2.88058 44.741 3.39214C43.0403 4.24153 41.4427 5.47701 40.0563 6.93931C37.4982 9.6371 35.6589 13.1038 35.2135 16.3285C34.4398 16.4813 33.6243 16.762 32.7744 17.1867C31.3052 17.9203 29.9262 18.9868 28.7294 20.2472C26.1648 22.9474 24.4352 26.5397 24.4454 29.6654C24.4529 31.9441 25.3837 33.5471 26.8827 34.3016L30.0126 35.8741C28.5127 35.1204 27.5819 33.5174 27.5745 31.2387C27.5643 28.113 29.2948 24.5207 31.8585 21.8206C33.0561 20.5593 34.4352 19.4936 35.9034 18.76C36.7552 18.3353 37.5698 18.0546 38.3434 17.9018C38.7889 14.6763 40.6282 11.2104 43.1863 8.51262C44.5727 7.05031 46.1703 5.81484 47.871 4.96464C48.8939 4.45388 49.8814 4.11927 50.8085 3.95036C52.3121 3.67688 53.6567 3.83775 54.7438 4.3839L51.6138 2.8106Z" fill="#D43E3E"/>
<path fill-rule="evenodd" clip-rule="evenodd" d="M47.8706 4.9648C52.7116 2.54774 56.7352 4.08726 57.4521 8.35834C58.2239 7.7398 59.0385 7.20652 59.8893 6.78182C64.5034 4.47737 68.2573 6.32817 68.2722 10.9138C68.2871 15.5001 64.5573 21.0888 59.9433 23.3932L35.9579 35.3716C31.3448 37.676 27.5899 35.8252 27.5751 31.2388C27.5602 26.6524 31.2899 21.0638 35.904 18.7594C36.7548 18.3355 37.5703 18.0548 38.3431 17.9011C39.0293 12.9295 43.0297 7.38267 47.8706 4.9648Z" fill="#FA7564"/>
<path d="M81.9323 25.6814V12.6014H84.5523L86.8723 19.0014C87.0189 19.4147 87.1589 19.8414 87.2923 20.2814C87.4256 20.708 87.5656 21.1347 87.7123 21.5614H87.7923C87.9389 21.1347 88.0723 20.708 88.1923 20.2814C88.3256 19.8414 88.4656 19.4147 88.6123 19.0014L90.8723 12.6014H93.5123V25.6814H91.3723V19.7014C91.3723 19.3947 91.3789 19.0614 91.3923 18.7014C91.4189 18.3414 91.4456 17.9814 91.4723 17.6214C91.4989 17.248 91.5323 16.888 91.5723 16.5414C91.6123 16.1814 91.6456 15.848 91.6723 15.5414H91.5923L90.5323 18.5814L88.3923 24.4614H87.0123L84.8523 18.5814L83.8123 15.5414H83.7323C83.7589 15.848 83.7856 16.1814 83.8123 16.5414C83.8523 16.888 83.8856 17.248 83.9123 17.6214C83.9523 17.9814 83.9789 18.3414 83.9923 18.7014C84.0189 19.0614 84.0323 19.3947 84.0323 19.7014V25.6814H81.9323ZM98.6648 25.9214C97.7982 25.9214 97.0982 25.6614 96.5648 25.1414C96.0315 24.608 95.7648 23.908 95.7648 23.0414C95.7648 22.5214 95.8715 22.0614 96.0848 21.6614C96.3115 21.248 96.6582 20.8947 97.1248 20.6014C97.6048 20.308 98.2048 20.0614 98.9248 19.8614C99.6582 19.6614 100.531 19.508 101.545 19.4014C101.531 19.148 101.491 18.908 101.425 18.6814C101.371 18.4414 101.271 18.2347 101.125 18.0614C100.991 17.8747 100.811 17.7347 100.585 17.6414C100.358 17.5347 100.078 17.4814 99.7448 17.4814C99.2648 17.4814 98.7915 17.5747 98.3248 17.7614C97.8715 17.948 97.4248 18.1747 96.9848 18.4414L96.1448 16.9014C96.6915 16.5547 97.3048 16.2547 97.9848 16.0014C98.6648 15.748 99.3982 15.6214 100.185 15.6214C101.411 15.6214 102.325 15.988 102.925 16.7214C103.538 17.4414 103.845 18.488 103.845 19.8614V25.6814H101.945L101.785 24.6014H101.705C101.265 24.9747 100.791 25.288 100.285 25.5414C99.7915 25.7947 99.2515 25.9214 98.6648 25.9214ZM99.4048 24.1214C99.8048 24.1214 100.165 24.028 100.485 23.8414C100.818 23.6547 101.171 23.388 101.545 23.0414V20.8414C100.878 20.9214 100.318 21.028 99.8648 21.1614C99.4115 21.2947 99.0448 21.448 98.7648 21.6214C98.4848 21.7814 98.2848 21.968 98.1648 22.1814C98.0448 22.3947 97.9848 22.6214 97.9848 22.8614C97.9848 23.3014 98.1182 23.6214 98.3848 23.8214C98.6515 24.0214 98.9915 24.1214 99.4048 24.1214ZM106.248 25.6814V15.8614H108.148L108.308 17.6014H108.388C108.734 16.9614 109.154 16.4747 109.648 16.1414C110.141 15.7947 110.648 15.6214 111.168 15.6214C111.634 15.6214 112.008 15.688 112.288 15.8214L111.888 17.8214C111.714 17.768 111.554 17.728 111.408 17.7014C111.261 17.6747 111.081 17.6614 110.868 17.6614C110.481 17.6614 110.074 17.8147 109.648 18.1214C109.221 18.4147 108.854 18.9347 108.548 19.6814V25.6814H106.248ZM116.819 25.9214C116.245 25.9214 115.759 25.8347 115.359 25.6614C114.972 25.488 114.652 25.248 114.399 24.9414C114.159 24.6214 113.979 24.248 113.859 23.8214C113.752 23.3814 113.699 22.8947 113.699 22.3614V17.6814H112.299V15.9614L113.819 15.8614L114.099 13.1814H116.019V15.8614H118.519V17.6814H116.019V22.3614C116.019 23.508 116.479 24.0814 117.399 24.0814C117.572 24.0814 117.745 24.0614 117.919 24.0214C118.105 23.9814 118.272 23.928 118.419 23.8614L118.819 25.5614C118.552 25.6547 118.245 25.7347 117.899 25.8014C117.565 25.8814 117.205 25.9214 116.819 25.9214ZM122.186 25.9214C121.319 25.9214 120.619 25.6614 120.086 25.1414C119.552 24.608 119.286 23.908 119.286 23.0414C119.286 22.5214 119.392 22.0614 119.606 21.6614C119.832 21.248 120.179 20.8947 120.646 20.6014C121.126 20.308 121.726 20.0614 122.446 19.8614C123.179 19.6614 124.052 19.508 125.066 19.4014C125.052 19.148 125.012 18.908 124.946 18.6814C124.892 18.4414 124.792 18.2347 124.646 18.0614C124.512 17.8747 124.332 17.7347 124.106 17.6414C123.879 17.5347 123.599 17.4814 123.266 17.4814C122.786 17.4814 122.312 17.5747 121.846 17.7614C121.392 17.948 120.946 18.1747 120.506 18.4414L119.666 16.9014C120.212 16.5547 120.826 16.2547 121.506 16.0014C122.186 15.748 122.919 15.6214 123.706 15.6214C124.932 15.6214 125.846 15.988 126.446 16.7214C127.059 17.4414 127.366 18.488 127.366 19.8614V25.6814H125.466L125.306 24.6014H125.226C124.786 24.9747 124.312 25.288 123.806 25.5414C123.312 25.7947 122.772 25.9214 122.186 25.9214ZM122.926 24.1214C123.326 24.1214 123.686 24.028 124.006 23.8414C124.339 23.6547 124.692 23.388 125.066 23.0414V20.8414C124.399 20.9214 123.839 21.028 123.386 21.1614C122.932 21.2947 122.566 21.448 122.286 21.6214C122.006 21.7814 121.806 21.968 121.686 22.1814C121.566 22.3947 121.506 22.6214 121.506 22.8614C121.506 23.3014 121.639 23.6214 121.906 23.8214C122.172 24.0214 122.512 24.1214 122.926 24.1214ZM134.868 25.9214C134.108 25.9214 133.422 25.8147 132.808 25.6014C132.208 25.3747 131.688 25.0214 131.248 24.5414C130.822 24.0614 130.488 23.448 130.248 22.7014C130.022 21.9414 129.908 21.0214 129.908 19.9414V12.6014H132.228V20.1214C132.228 20.828 132.288 21.428 132.408 21.9214C132.542 22.4014 132.722 22.788 132.948 23.0814C133.188 23.3747 133.468 23.588 133.788 23.7214C134.108 23.8414 134.468 23.9014 134.868 23.9014C135.268 23.9014 135.635 23.8414 135.968 23.7214C136.302 23.588 136.588 23.3747 136.828 23.0814C137.068 22.788 137.255 22.4014 137.388 21.9214C137.522 21.428 137.588 20.828 137.588 20.1214V12.6014H139.808V19.9414C139.808 21.0214 139.695 21.9414 139.468 22.7014C139.242 23.448 138.908 24.0614 138.468 24.5414C138.042 25.0214 137.522 25.3747 136.908 25.6014C136.308 25.8147 135.628 25.9214 134.868 25.9214ZM142.724 25.6814V12.6014H146.844C147.564 12.6014 148.231 12.668 148.844 12.8014C149.471 12.9347 150.011 13.1614 150.464 13.4814C150.917 13.8014 151.271 14.2214 151.524 14.7414C151.777 15.248 151.904 15.8814 151.904 16.6414C151.904 17.3614 151.777 17.988 151.524 18.5214C151.271 19.0547 150.917 19.5014 150.464 19.8614C150.024 20.208 149.497 20.468 148.884 20.6414C148.284 20.8014 147.631 20.8814 146.924 20.8814H145.044V25.6814H142.724ZM145.044 19.0214H146.744C148.664 19.0214 149.624 18.228 149.624 16.6414C149.624 15.8147 149.371 15.248 148.864 14.9414C148.371 14.6214 147.637 14.4614 146.664 14.4614H145.044V19.0214Z" fill="white"/>
</g>
<defs>
<clipPath id="clip0">
<rect width="163.993" height="36.3627" fill="white"/>
</clipPath>
</defs>
</svg>
